Coordinates
version=1
nRows=26
nColumns=34
inDegrees=no

Units are S.I. units (second, meters, Newtons, ...)
If the header above contains a line with 'inDegrees', this indicates whether rotational values are in degrees (yes) or radians (no).

endheader
time	pelvis_tilt	pelvis_list	pelvis_rotation	pelvis_tx	pelvis_ty	pelvis_tz	hip_flexion_r	hip_adduction_r	hip_rotation_r	knee_angle_r	ankle_angle_r	subtalar_angle_r	mtp_angle_r	hip_flexion_l	hip_adduction_l	hip_rotation_l	knee_angle_l	ankle_angle_l	subtalar_angle_l	mtp_angle_l	lumbar_extension	lumbar_bending	lumbar_rotation	arm_flex_r	arm_add_r	arm_rot_r	elbow_flex_r	pro_sup_r	arm_flex_l	arm_add_l	arm_rot_l	elbow_flex_l	pro_sup_l
0	0.0321101	-0.0112999	0.0215964	-0.272987	0.911716	-0.236015	0.471217	-0.0238734	-0.174593	0.0843034	0.269261	0.246841	0	-0.416193	0.0505164	-0.00857657	0.126382	0.388042	0.0668393	0	-0.192923	0.0727654	-0.125584	-0.127643	-0.155818	-0.320906	0.559924	2.09	0.124583	-0.226421	0.112423	0.755764	2.09
0.01	0.026819	-0.0141562	0.0220387	-0.259098	0.909506	-0.236379	0.482577	-0.0211887	-0.180917	0.108903	0.234632	0.242358	0	-0.415688	0.0464314	-0.0153309	0.144959	0.380087	0.0788509	0	-0.180481	0.0814604	-0.125928	-0.127351	-0.153186	-0.336004	0.547342	2.09	0.121873	-0.220272	0.104831	0.748858	2.09
0.02	0.0227798	-0.022214	0.0226215	-0.244023	0.907475	-0.236661	0.48907	-0.0129311	-0.186165	0.129914	0.198534	0.233512	0	-0.418304	0.0357654	-0.0328403	0.162319	0.373878	0.104214	0	-0.169072	0.0965164	-0.12626	-0.12978	-0.151845	-0.352046	0.538207	2.09	0.115008	-0.212669	0.0941375	0.745078	2.09
0.03	0.0191471	-0.0334232	0.0229517	-0.228514	0.905723	-0.236771	0.494366	-0.00089528	-0.186247	0.151081	0.159688	0.217565	0	-0.419705	0.0202185	-0.0622658	0.183215	0.369818	0.145328	0	-0.158557	0.115144	-0.12656	-0.132496	-0.151179	-0.367937	0.530664	2.09	0.106203	-0.204347	0.0816805	0.742551	2.09
0.04	0.0157247	-0.046329	0.0226316	-0.212755	0.904339	-0.236733	0.50029	0.0129054	-0.185413	0.175591	0.122457	0.203516	0	-0.420633	0.00315232	-0.0867188	0.204924	0.358364	0.176027	0	-0.148671	0.135565	-0.126677	-0.134788	-0.151031	-0.383386	0.523962	2.09	0.0961417	-0.195382	0.0681219	0.739986	2.09
0.05	0.0124651	-0.0603041	0.0214468	-0.196825	0.903373	-0.236531	0.507529	0.0277353	-0.184253	0.20492	0.090646	0.192986	0	-0.419908	-0.0149278	-0.108077	0.229303	0.340342	0.199539	0	-0.139349	0.156926	-0.126472	-0.136426	-0.151234	-0.398382	0.517941	2.09	0.0851245	-0.185885	0.0538904	0.7368	2.09
0.06	0.00922487	-0.0748246	0.0192572	-0.180784	0.902826	-0.236145	0.516256	0.0432726	-0.181872	0.23927	0.0671825	0.184168	0	-0.416183	-0.0341455	-0.129965	0.258518	0.31737	0.221831	0	-0.130507	0.178502	-0.125873	-0.137371	-0.151572	-0.413031	0.512728	2.09	0.0732944	-0.176028	0.0391938	0.7329	2.09
0.07	0.00595615	-0.0890126	0.0159169	-0.164697	0.902688	-0.235576	0.526005	0.0590134	-0.177231	0.277729	0.0539079	0.17499	0	-0.409	-0.05352	-0.150369	0.292995	0.288249	0.240104	0	-0.12223	0.199205	-0.124798	-0.137624	-0.15185	-0.4271	0.508449	2.09	0.0608055	-0.166091	0.0243002	0.728426	2.09
0.08	0.00267092	-0.102192	0.0113934	-0.148638	0.902944	-0.234824	0.535579	0.0750076	-0.168402	0.317859	0.0501181	0.161849	0	-0.39788	-0.0723646	-0.167969	0.333183	0.252172	0.25228	0	-0.114669	0.218174	-0.123157	-0.137201	-0.151865	-0.440337	0.505223	2.09	0.0478745	-0.156367	0.00944397	0.723573	2.09
0.09	-0.000558167	-0.114035	0.00581583	-0.132688	0.903583	-0.233885	0.543505	0.0916064	-0.154303	0.356643	0.0533902	0.142375	0	-0.382323	-0.0905796	-0.182615	0.379626	0.208836	0.257546	0	-0.108	0.234938	-0.120872	-0.136134	-0.151472	-0.452376	0.503103	2.09	0.0348124	-0.147121	-0.00509665	0.718451	2.09
0.1	-0.00364809	-0.124548	-0.000412873	-0.116919	0.904582	-0.232769	0.548508	0.108909	-0.135912	0.391464	0.061022	0.1172	0	-0.361923	-0.10869	-0.194914	0.432685	0.158389	0.255965	0	-0.102294	0.24941	-0.118027	-0.134516	-0.150593	-0.462795	0.502097	2.09	0.0219843	-0.138588	-0.0189847	0.713063	2.09
0.11	-0.00629164	-0.133534	-0.00609669	-0.101253	0.905833	-0.231432	0.549254	0.126922	-0.112328	0.420237	0.0697566	0.0830818	0	-0.337003	-0.127558	-0.205414	0.491956	0.101725	0.248702	0	-0.0971857	0.261036	-0.11555	-0.132932	-0.148764	-0.471433	0.502312	2.09	0.00926845	-0.131415	-0.0318566	0.707809	2.09
0.12	-0.00941079	-0.143752	-0.0124345	-0.0862686	0.907569	-0.23016	0.54624	0.145388	-0.0953975	0.440952	0.080319	0.0601276	0	-0.306227	-0.148912	-0.214133	0.556898	0.0391213	0.231402	0	-0.0935752	0.273777	-0.111353	-0.129943	-0.14781	-0.477032	0.503313	2.09	-0.000964972	-0.123931	-0.0432372	0.700627	2.09
0.13	-0.0120299	-0.152507	-0.0165653	-0.071466	0.909421	-0.22882	0.539603	0.161814	-0.0804254	0.456381	0.0924745	0.0379655	0	-0.272112	-0.171102	-0.218941	0.624373	-0.026047	0.206447	0	-0.0900724	0.283711	-0.108504	-0.127423	-0.146032	-0.480184	0.505505	2.09	-0.010389	-0.118094	-0.0528341	0.693387	2.09
0.14	-0.0136393	-0.163183	-0.0185435	-0.0571017	0.911664	-0.227592	0.526534	0.179213	-0.0684498	0.461267	0.102995	0.0183606	0	-0.236041	-0.196723	-0.220046	0.692164	-0.0894998	0.173873	0	-0.0881903	0.295131	-0.106024	-0.124511	-0.144811	-0.480163	0.508547	2.09	-0.0174254	-0.112654	-0.0603353	0.684586	2.09
0.15	-0.018229	-0.165137	-0.020428	-0.0431946	0.913322	-0.226279	0.520484	0.185348	-0.0633321	0.473477	0.122353	0.0121754	0	-0.194022	-0.212536	-0.214636	0.758671	-0.145392	0.132078	0	-0.0827116	0.295463	-0.103503	-0.122698	-0.141834	-0.477404	0.512688	2.09	-0.0239161	-0.110242	-0.0657401	0.67698	2.09
0.16	-0.0210675	-0.169348	-0.0198778	-0.0297236	0.915418	-0.225182	0.507498	0.192374	-0.061351	0.47535	0.140044	0.00969085	0	-0.152453	-0.230453	-0.205591	0.821797	-0.188481	0.0862366	0	-0.0796406	0.297815	-0.101158	-0.120407	-0.13993	-0.470996	0.517331	2.09	-0.0275758	-0.107963	-0.0690449	0.667551	2.09
0.17	-0.0224118	-0.172565	-0.0170849	-0.0165371	0.917718	-0.22427	0.491772	0.1966	-0.0635429	0.474534	0.158627	0.0123171	0	-0.11144	-0.246256	-0.192579	0.880395	-0.215347	0.0378285	0	-0.0780748	0.298358	-0.099305	-0.11814	-0.138432	-0.46107	0.522439	2.09	-0.0292972	-0.106568	-0.0705851	0.657343	2.09
0.18	-0.0230316	-0.174261	-0.0129579	-0.00366641	0.920141	-0.223491	0.474119	0.198278	-0.0678054	0.470982	0.177322	0.0185817	0	-0.0702799	-0.259018	-0.176874	0.934188	-0.225854	-0.0122235	0	-0.077436	0.296572	-0.09734	-0.1157	-0.137394	-0.447699	0.527747	2.09	-0.0293149	-0.105957	-0.0707965	0.646556	2.09
0.19	-0.0232475	-0.174325	-0.00802756	0.00892058	0.922657	-0.222827	0.455357	0.19769	-0.0732494	0.465616	0.195515	0.0274149	0	-0.0289064	-0.268465	-0.159679	0.982609	-0.222848	-0.062775	0	-0.0774665	0.292442	-0.0950545	-0.11287	-0.136912	-0.431122	0.532959	2.09	-0.0279827	-0.105911	-0.0702166	0.635386	2.09
0.2	-0.0233708	-0.172877	-0.00281646	0.0212597	0.925243	-0.222241	0.435914	0.195407	-0.0787605	0.458677	0.212569	0.0374897	0	0.0126472	-0.27471	-0.142175	1.02509	-0.210872	-0.112319	0	-0.0779116	0.286188	-0.0922798	-0.109421	-0.137047	-0.411689	0.537778	2.09	-0.0257083	-0.106196	-0.0694304	0.62406	2.09
0.21	-0.0236352	-0.170066	0.0021963	0.0333898	0.927879	-0.221697	0.416066	0.191978	-0.083288	0.450297	0.228045	0.0475506	0	0.0542063	-0.277945	-0.12536	1.06119	-0.194551	-0.15904	0	-0.0785771	0.278036	-0.0888751	-0.105193	-0.137812	-0.389778	0.541987	2.09	-0.0229129	-0.106611	-0.0690163	0.612835	2.09
0.22	-0.02367	-0.164972	0.00668319	0.0453209	0.93065	-0.221198	0.39561	0.186079	-0.0880739	0.441175	0.243532	0.0609806	0	0.0943882	-0.277119	-0.11063	1.08959	-0.177456	-0.201113	0	-0.0800355	0.267035	-0.0848084	-0.0997667	-0.139103	-0.365206	0.54501	2.09	-0.0197702	-0.107151	-0.0694899	0.601795	2.09
0.23	-0.0251869	-0.161353	0.0101912	0.0571762	0.933181	-0.22059	0.375841	0.183669	-0.0866786	0.429546	0.25383	0.0642908	0	0.136678	-0.276764	-0.0961207	1.11407	-0.159779	-0.236048	0	-0.0799695	0.257317	-0.0797025	-0.0945065	-0.141014	-0.340629	0.548914	2.09	-0.0172611	-0.107278	-0.0711789	0.591928	2.09
0.24	-0.0261622	-0.154904	0.0128388	0.0688471	0.935908	-0.219993	0.355071	0.178568	-0.0838003	0.417157	0.263607	0.0685826	0	0.176151	-0.271936	-0.085008	1.13004	-0.142517	-0.262959	0	-0.081189	0.244194	-0.0739363	-0.0878772	-0.143272	-0.313302	0.551388	2.09	-0.0146772	-0.107614	-0.074252	0.582522	2.09
0.25	-0.0277638	-0.148461	0.0144743	0.0804679	0.938499	-0.21934	0.334518	0.173916	-0.079415	0.403738	0.272422	0.0718628	0	0.215548	-0.265777	-0.075029	1.14072	-0.124286	-0.281197	0	-0.0818992	0.23084	-0.0673938	-0.0811694	-0.146142	-0.28475	0.554237	2.09	-0.0128545	-0.107732	-0.0789659	0.574528	2.09
